<?xml version="1.0" encoding="UTF-8"?>
<svg version="1.1" xmlns="http://www.w3.org/2000/svg" width="512" height="512">
<path d="M0 0 C1.63339429 -0.00533679 3.26678366 -0.01240894 4.90016383 -0.02104706 C9.35084309 -0.03955159 13.80118684 -0.03341182 18.25187933 -0.02289402 C23.06661985 -0.01586706 27.88129384 -0.03192644 32.6960144 -0.04489136 C42.11399837 -0.06647905 51.53186125 -0.06641778 60.9498618 -0.05826581 C68.60910029 -0.05195291 76.2683036 -0.05311467 83.92754173 -0.05953789 C85.01977964 -0.06043954 86.11201754 -0.0613412 87.23735356 -0.06227018 C89.45660666 -0.06412148 91.67585975 -0.06598404 93.89511283 -0.06785773 C114.68347987 -0.08441831 135.47177894 -0.07573218 156.26014187 -0.05887216 C175.25294802 -0.04418035 194.24559589 -0.05879943 213.23838166 -0.08764232 C232.76892853 -0.11707958 252.29940247 -0.12799575 271.82997054 -0.11846012 C274.04174434 -0.11743763 276.25351815 -0.11644302 278.46529198 -0.11547661 C279.55335771 -0.11500022 280.64142344 -0.11452383 281.76246086 -0.114033 C289.40502145 -0.1118744 297.04751256 -0.12164354 304.69005775 -0.13624763 C314.01478801 -0.15381852 323.33931667 -0.15358568 332.66403917 -0.13089598 C337.41561618 -0.11979633 342.16683863 -0.11649358 346.91839981 -0.13519669 C351.2791779 -0.15213977 355.63929599 -0.14546587 360.00003239 -0.1209799 C361.56652502 -0.11614111 363.13307232 -0.11948873 364.69951866 -0.13246734 C385.17133744 -0.28966786 402.08451471 5.91932563 417.11979675 20.17481995 C432.35838327 35.8316181 438.03550098 53.69526331 437.9118042 75.11752319 C437.91714099 76.75091748 437.92421314 78.38430685 437.93285125 80.01768702 C437.95135579 84.46836628 437.94521601 88.91871003 437.93469822 93.36940253 C437.92767126 98.18414304 437.94373064 102.99881703 437.95669556 107.8135376 C437.97828324 117.23152156 437.97822198 126.64938444 437.97007001 136.067385 C437.96375711 143.72662348 437.96491887 151.3858268 437.97134209 159.04506493 C437.97224374 160.13730283 437.9731454 161.22954073 437.97407437 162.35487675 C437.97592568 164.57412985 437.97778824 166.79338295 437.97966193 169.01263603 C437.99622251 189.80100306 437.98753638 210.58930213 437.97067636 231.37766507 C437.95598455 250.37047121 437.97060362 269.36311909 437.99944652 288.35590485 C438.02888378 307.88645172 438.03979995 327.41692566 438.03026432 346.94749373 C438.02924183 349.15926753 438.02824722 351.37104135 438.02728081 353.58281517 C438.02680442 354.6708809 438.02632803 355.75894663 438.0258372 356.87998405 C438.0236786 364.52254465 438.03344774 372.16503575 438.04805183 379.80758095 C438.06562272 389.13231121 438.06538988 398.45683986 438.04270018 407.78156237 C438.03160053 412.53313937 438.02829778 417.28436182 438.04700089 422.035923 C438.06394397 426.39670109 438.05727007 430.75681918 438.0327841 435.11755558 C438.02794531 436.68404821 438.03129293 438.25059551 438.04427154 439.81704185 C438.20147206 460.28886063 431.99247857 477.2020379 417.73698425 492.23731995 C402.0801861 507.47590646 384.21654088 513.15302417 362.79428101 513.02932739 C361.16088671 513.03466418 359.52749735 513.04173634 357.89411718 513.05037445 C353.44343792 513.06887898 348.99309417 513.06273921 344.54240167 513.05222142 C339.72766116 513.04519445 334.91298717 513.06125383 330.0982666 513.07421875 C320.68028264 513.09580644 311.26241975 513.09574517 301.8444192 513.08759321 C294.18518072 513.0812803 286.5259774 513.08244206 278.86673927 513.08886528 C277.77450137 513.08976694 276.68226347 513.09066859 275.55692745 513.09159757 C273.33767435 513.09344887 271.11842125 513.09531143 268.89916817 513.09718513 C248.11080114 513.1137457 227.32250207 513.10505957 206.53413913 513.08819955 C187.54133299 513.07350774 168.54868511 513.08812682 149.55589934 513.11696971 C130.02535247 513.14640697 110.49487854 513.15732314 90.96431047 513.14778751 C88.75253667 513.14676502 86.54076285 513.14577041 84.32898903 513.144804 C83.2409233 513.14432761 82.15285757 513.14385122 81.03182014 513.14336039 C73.38925955 513.14120179 65.74676845 513.15097093 58.10422325 513.16557503 C48.77949299 513.18314591 39.45496434 513.18291308 30.13024183 513.16022337 C25.37866483 513.14912372 20.62744238 513.14582097 15.8758812 513.16452408 C11.51510311 513.18146717 7.15498502 513.17479327 2.79424862 513.15030729 C1.22775599 513.1454685 -0.33879131 513.14881612 -1.90523765 513.16179473 C-22.37705643 513.31899525 -39.2902337 507.11000177 -54.32551575 492.85450745 C-69.56410226 477.1977093 -75.24121997 459.33406408 -75.11752319 437.9118042 C-75.12285998 436.27840991 -75.12993214 434.64502054 -75.13857025 433.01164037 C-75.15707478 428.56096111 -75.15093501 424.11061736 -75.14041722 419.65992486 C-75.13339025 414.84518435 -75.14944963 410.03051036 -75.16241455 405.21578979 C-75.18400224 395.79780583 -75.18394097 386.37994295 -75.17578901 376.9619424 C-75.1694761 369.30270391 -75.17063786 361.6435006 -75.17706108 353.98426247 C-75.17796274 352.89202456 -75.17886439 351.79978666 -75.17979337 350.67445064 C-75.18164467 348.45519754 -75.18350723 346.23594445 -75.18538093 344.01669136 C-75.2019415 323.22832433 -75.19325537 302.44002526 -75.17639535 281.65166233 C-75.16170354 262.65885618 -75.17632262 243.6662083 -75.20516551 224.67342254 C-75.23460277 205.14287567 -75.24551894 185.61240173 -75.23598331 166.08183366 C-75.23496082 163.87005986 -75.23396621 161.65828605 -75.2329998 159.44651222 C-75.23252341 158.35844649 -75.23204702 157.27038076 -75.2315562 156.14934334 C-75.22939759 148.50678275 -75.23916673 140.86429164 -75.25377083 133.22174644 C-75.27134171 123.89701619 -75.27110888 114.57248753 -75.24841917 105.24776503 C-75.23731952 100.49618802 -75.23401677 95.74496557 -75.25271988 90.99340439 C-75.26966297 86.6326263 -75.26298907 82.27250821 -75.23850309 77.91177181 C-75.23366431 76.34527918 -75.23701192 74.77873188 -75.24999053 73.21228554 C-75.40719105 52.74046676 -69.19819757 35.82728949 -54.94270325 20.79200745 C-39.2859051 5.55342093 -21.42225988 -0.12369678 0 0 Z " fill="#000000" transform="translate(74.60285949707031,-0.5146636962890625)"/>
<path d="M0 0 C1.31145996 -0.00315216 2.62291992 -0.00630432 3.97412109 -0.009552 C5.4072269 -0.00776211 6.84033241 -0.00571113 8.2734375 -0.00341797 C9.74169938 -0.00409157 11.20996116 -0.00506207 12.67822266 -0.00631714 C15.75489362 -0.00779145 18.83153554 -0.00564811 21.90820312 -0.00097656 C25.85265413 0.00472057 29.79703709 0.00144014 33.7414856 -0.00454903 C36.77319858 -0.00816183 39.80489542 -0.00701274 42.83660889 -0.00442123 C44.29107674 -0.00375396 45.74554606 -0.00457344 47.20001221 -0.00690079 C49.23229952 -0.00943903 51.26459197 -0.0048847 53.296875 0 C54.45364746 0.00079559 55.61041992 0.00159119 56.80224609 0.00241089 C59.6484375 0.12939453 59.6484375 0.12939453 62.6484375 1.12939453 C62.6484375 1.78939453 62.6484375 2.44939453 62.6484375 3.12939453 C63.3909375 3.21189453 64.1334375 3.29439453 64.8984375 3.37939453 C68.19146345 4.27749252 69.50820538 5.51355527 71.6484375 8.12939453 C71.6484375 8.78939453 71.6484375 9.44939453 71.6484375 10.12939453 C72.3084375 10.12939453 72.9684375 10.12939453 73.6484375 10.12939453 C77.66122926 20.19701944 77.0899859 30.33648172 77.08081055 41.00097656 C77.08983559 43.12065703 77.10016463 45.24033229 77.11169434 47.36000061 C77.13920307 53.09271059 77.14854057 58.82532137 77.15454841 64.55808878 C77.16394799 70.55722874 77.1901527 76.55629508 77.21455383 82.5553894 C77.25817887 93.90585925 77.28675042 105.25631477 77.30987722 116.60684288 C77.33695028 129.53311076 77.38086052 142.45930443 77.42616594 155.38551927 C77.51895502 181.96677075 77.59066205 208.54804551 77.6484375 235.12939453 C78.3084375 235.12939453 78.9684375 235.12939453 79.6484375 235.12939453 C81.20764897 237.46821173 82.48513162 239.6530857 83.3984375 242.31689453 C85.36518642 245.16868047 88.40610003 245.4789687 91.6484375 246.12939453 C94.20786383 246.30468164 96.77444868 246.39113594 99.33984375 246.40283203 C100.79362766 246.42310859 102.24740367 246.44395913 103.70117188 246.46533203 C105.96125048 246.48794511 108.22101445 246.50442054 110.48120117 246.51025391 C112.68463912 246.51981225 114.886714 246.55360301 117.08984375 246.59033203 C119.04966187 246.60265869 119.04966187 246.60265869 121.04907227 246.61523438 C125.2308739 247.21259409 127.33445395 248.56984515 130.6484375 251.12939453 C131.6796875 251.85126953 132.7109375 252.57314453 133.7734375 253.31689453 C137.53160226 256.48477163 138.89072777 260.6632139 140.6484375 265.12939453 C141.81197655 267.68733356 142.54226817 269.03317858 144.6484375 270.94189453 C147.23370038 273.7695258 147.79755312 276.44222887 148.6484375 280.12939453 C149.3084375 280.12939453 149.9684375 280.12939453 150.6484375 280.12939453 C150.85597656 280.66306641 151.06351563 281.19673828 151.27734375 281.74658203 C153.56357041 287.27561553 156.45612044 291.81149873 159.9765625 296.63330078 C162.02115342 299.68585592 163.41087839 302.79970081 164.7265625 306.21923828 C165.54471915 308.19369913 165.54471915 308.19369913 167.1328125 309.57080078 C171.03294589 313.58150496 170.91977751 318.2943925 170.8984375 323.62939453 C170.90617187 325.56298828 170.90617187 325.56298828 170.9140625 327.53564453 C170.44098743 333.936072 167.99832582 337.47602563 163.6484375 342.12939453 C158.3685552 345.9573092 153.44701547 346.25386775 147.05801392 346.2631073 C146.40939593 346.26537286 145.76077794 346.26763841 145.09250486 346.26997262 C142.92704875 346.27628419 140.76165568 346.27548509 138.59619141 346.2746582 C137.04032816 346.27765146 135.48446566 346.28105437 133.92860413 346.28483582 C129.70748646 346.29366283 125.48638908 346.29601338 121.26526308 346.2966516 C118.62673387 346.29736281 115.98820979 346.29949848 113.34968185 346.30214882 C104.14099551 346.31139776 94.93232364 346.31548425 85.72363281 346.31469727 C77.14571126 346.31409651 68.5678526 346.32464907 59.98994696 346.34044093 C52.61994336 346.35352458 45.24996029 346.35888082 37.87994516 346.35824186 C33.48056538 346.35798712 29.08124151 346.3608248 24.68187332 346.37141991 C20.5433984 346.38111482 16.40503269 346.38117052 12.26655388 346.37390327 C10.75045932 346.37285918 9.2343579 346.37520989 7.71827507 346.38126373 C5.64299874 346.38901168 3.56809696 346.38432069 1.49282837 346.37663269 C0.33325434 346.37717746 -0.82631969 346.37772223 -2.02103233 346.3782835 C-5.7540794 346.09931463 -8.79603827 345.26882353 -12.3515625 344.12939453 C-12.3515625 343.46939453 -12.3515625 342.80939453 -12.3515625 342.12939453 C-13.11933844 341.88815812 -13.88711438 341.6469217 -14.67815626 341.39837509 C-18.66213719 339.50730658 -19.59194079 336.99594511 -21.37359166 333.0924176 C-23.13187031 327.76524425 -23.02422786 322.55235445 -22.95956421 316.98841858 C-22.9645419 315.69567203 -22.96951959 314.40292549 -22.97464812 313.07100481 C-22.98768819 309.50762109 -22.96979188 305.94498033 -22.94654965 302.38167369 C-22.92692875 298.52966911 -22.93636061 294.67771862 -22.94213867 290.82568359 C-22.94894144 283.29139174 -22.92933862 275.75739042 -22.90097539 268.22315801 C-22.86908281 259.44977169 -22.86472267 250.67643608 -22.86178346 241.90300017 C-22.8557247 226.25436157 -22.82663328 210.60585278 -22.78369141 194.95727539 C-22.74204553 179.76781966 -22.71374489 164.57842486 -22.70166016 149.38891602 C-22.70091194 148.45233585 -22.70016373 147.51575569 -22.69939284 146.55079431 C-22.69641861 142.78629911 -22.69348131 139.02180388 -22.69060656 135.25730861 C-22.6778814 119.03671173 -22.65412628 102.81612846 -22.6289683 86.59554681 C-22.62498579 83.96767305 -22.62126749 81.33979903 -22.61761427 78.71192479 C-22.60460207 69.51836076 -22.58829035 60.32482081 -22.56262986 51.13128246 C-22.55203123 47.32941553 -22.54292833 43.5275622 -22.53805923 39.72568321 C-22.53268759 35.61092257 -22.51952994 31.49622509 -22.50546265 27.38148499 C-22.50496489 26.17139599 -22.50446713 24.961307 -22.50395429 23.71454865 C-22.49887975 22.61747288 -22.49380521 21.52039712 -22.48857689 20.39007664 C-22.48624625 19.43974129 -22.4839156 18.48940595 -22.48151433 17.51027256 C-22.3515625 15.12939453 -22.3515625 15.12939453 -21.3515625 12.12939453 C-20.6915625 12.12939453 -20.0315625 12.12939453 -19.3515625 12.12939453 C-19.0834375 11.36626953 -18.8153125 10.60314453 -18.5390625 9.81689453 C-17.3798264 7.19336019 -16.59900604 5.85819725 -14.3515625 4.12939453 C-13.02295325 3.77770385 -11.68997922 3.44169177 -10.3515625 3.12939453 C-10.0215625 2.46939453 -9.6915625 1.80939453 -9.3515625 1.12939453 C-6.01423963 0.01695358 -3.51632112 0.00241842 0 0 Z " fill="#FDFDFD" transform="translate(122.3515625,88.87060546875)"/>
<path d="M0 0 C1.75703247 -0.00314209 1.75703247 -0.00314209 3.54956055 -0.00634766 C5.40061401 0.00066162 5.40061401 0.00066162 7.2890625 0.0078125 C8.54952393 0.01119629 9.80998535 0.01458008 11.10864258 0.01806641 C34.2066256 0.14616511 34.2066256 0.14616511 43.56640625 2.54296875 C46.53707914 3.28934413 49.53432428 3.85107935 52.5390625 4.4453125 C65.81021228 7.3105124 77.79940545 12.16999549 89.9140625 18.1328125 C89.9140625 18.7928125 89.9140625 19.4528125 89.9140625 20.1328125 C91.0896875 20.349375 91.0896875 20.349375 92.2890625 20.5703125 C94.9140625 21.1328125 94.9140625 21.1328125 96.9140625 22.1328125 C96.9140625 22.7928125 96.9140625 23.4528125 96.9140625 24.1328125 C97.6359375 24.2153125 98.3578125 24.2978125 99.1015625 24.3828125 C104.55371626 25.83672017 108.06870899 30.20006459 111.9140625 34.1328125 C112.59726562 34.80570313 113.28046875 35.47859375 113.984375 36.171875 C124.47122057 46.51652605 124.47122057 46.51652605 127.9140625 51.1328125 C127.9140625 51.7928125 127.9140625 52.4528125 127.9140625 53.1328125 C128.5740625 53.1328125 129.2340625 53.1328125 129.9140625 53.1328125 C130.5740625 55.4428125 131.2340625 57.7528125 131.9140625 60.1328125 C132.5740625 60.1328125 133.2340625 60.1328125 133.9140625 60.1328125 C136.9140625 66.6328125 136.9140625 66.6328125 136.9140625 71.1328125 C137.5740625 71.1328125 138.2340625 71.1328125 138.9140625 71.1328125 C139.75618506 73.04563375 140.58745114 74.96323723 141.4140625 76.8828125 C141.878125 77.95015625 142.3421875 79.0175 142.8203125 80.1171875 C143.9140625 83.1328125 143.9140625 83.1328125 143.9140625 87.1328125 C144.5740625 87.1328125 145.2340625 87.1328125 145.9140625 87.1328125 C150.15412066 101.45519048 154.06051447 115.11102502 153.9140625 130.1328125 C154.5740625 130.1328125 155.2340625 130.1328125 155.9140625 130.1328125 C158.54439566 157.23014097 159.10163225 184.43745727 156.6640625 211.5703125 C156.50031128 213.46849731 156.50031128 213.46849731 156.33325195 215.4050293 C155.45990814 223.99357825 153.48024262 231.90575826 150.9140625 240.1328125 C150.56762695 241.38126953 150.22119141 242.62972656 149.86425781 243.91601562 C148.61145056 248.15727676 146.96805864 250.00246646 143.9140625 253.1328125 C143.2540625 253.1328125 142.5940625 253.1328125 141.9140625 253.1328125 C141.5840625 254.1228125 141.2540625 255.1128125 140.9140625 256.1328125 C139.9240625 256.1328125 138.9340625 256.1328125 137.9140625 256.1328125 C137.9140625 256.7928125 137.9140625 257.4528125 137.9140625 258.1328125 C132.3040625 258.1328125 126.6940625 258.1328125 120.9140625 258.1328125 C120.9140625 257.4728125 120.9140625 256.8128125 120.9140625 256.1328125 C120.1096875 255.7615625 120.1096875 255.7615625 119.2890625 255.3828125 C116.9140625 254.1328125 116.9140625 254.1328125 114.0390625 252.1953125 C110.98276164 250.06570424 110.98276164 250.06570424 107.6640625 248.6328125 C104.69123475 247.01127009 104.13094316 246.17501414 102.9140625 243.1328125 C102.2540625 242.8028125 101.5940625 242.4728125 100.9140625 242.1328125 C100.9140625 241.4728125 100.9140625 240.8128125 100.9140625 240.1328125 C100.09615234 240.00519531 100.09615234 240.00519531 99.26171875 239.875 C96.1382423 238.88754488 93.97685157 237.20802723 91.3515625 235.2578125 C89.92650391 234.20980469 89.92650391 234.20980469 88.47265625 233.140625 C85.9140625 231.1328125 85.9140625 231.1328125 84.48242188 229.67871094 C82.8381771 228.05801388 81.13143739 226.74341157 79.26171875 225.390625 C78.56755859 224.88144531 77.87339844 224.37226563 77.15820312 223.84765625 C75.71004226 222.79232685 74.25953456 221.74020997 72.80664062 220.69140625 C68.90042264 217.81695112 65.78195529 215.10589325 62.9140625 211.1328125 C62.3571875 210.5965625 61.8003125 210.0603125 61.2265625 209.5078125 C58.80738404 206.97343507 58.79498953 204.2858664 58.83227539 200.9753418 C58.8388063 200.13984299 58.84533722 199.30434418 58.85206604 198.44352722 C58.86350143 197.54048355 58.87493683 196.63743988 58.88671875 195.70703125 C58.89938472 193.77539254 58.91174418 191.84375181 58.92382812 189.91210938 C58.94844058 186.88234038 58.97620132 183.85267887 59.01000977 180.82299805 C59.13947924 168.43980384 58.95220463 156.66685729 56.35180664 144.50268555 C55.77169662 141.36206761 55.85160573 138.31810786 55.9140625 135.1328125 C55.2540625 135.1328125 54.5940625 135.1328125 53.9140625 135.1328125 C53.74390625 134.5759375 53.57375 134.0190625 53.3984375 133.4453125 C50.84069237 125.39113633 48.26933848 118.91033612 41.9140625 113.1328125 C40.98013672 112.13701172 40.98013672 112.13701172 40.02734375 111.12109375 C36.26650535 107.13102329 33.4921276 104.24842552 27.9140625 103.1328125 C27.9140625 102.4728125 27.9140625 101.8128125 27.9140625 101.1328125 C20.29124385 100.20503853 12.75582725 99.97120667 5.08203125 99.921875 C2.63085234 99.89383791 0.17968053 99.86517374 -2.27148438 99.8359375 C-6.10083042 99.79452584 -9.9300389 99.7575967 -13.75952148 99.73144531 C-17.47927414 99.70390038 -21.19844099 99.65807158 -24.91796875 99.609375 C-26.06384964 99.60612213 -27.20973053 99.60286926 -28.39033508 99.59951782 C-29.45882187 99.58295135 -30.52730865 99.56638489 -31.62817383 99.54931641 C-32.56397781 99.54122955 -33.4997818 99.5331427 -34.46394348 99.52481079 C-39.41809848 98.78414537 -42.86328902 95.83289038 -46.0859375 92.1328125 C-46.0859375 91.4728125 -46.0859375 90.8128125 -46.0859375 90.1328125 C-47.0759375 89.8028125 -48.0659375 89.4728125 -49.0859375 89.1328125 C-49.0859375 88.1428125 -49.0859375 87.1528125 -49.0859375 86.1328125 C-49.7459375 86.1328125 -50.4059375 86.1328125 -51.0859375 86.1328125 C-51.56504026 75.80548627 -50.89938476 67.27139748 -44.34765625 58.98828125 C-42.3480387 56.04766721 -41.26503646 52.79974985 -40.078125 49.46484375 C-39.0859375 47.1328125 -39.0859375 47.1328125 -37.59375 45.14453125 C-35.9027453 42.88839803 -35.05262858 40.77510144 -34.0859375 38.1328125 C-33.12853965 35.51592505 -32.30748514 33.4209998 -30.60546875 31.20703125 C-28.69318217 28.59668633 -27.8348535 25.9982513 -26.7734375 22.9453125 C-23.55203391 14.36772444 -19.18910329 6.03321514 -11.0859375 1.1328125 C-7.34872207 0.19534151 -3.84481502 0.00412471 0 0 Z " fill="#FDFDFD" transform="translate(263.0859375,88.8671875)"/>
<path d="M0 0 C4.46570449 -0.0743839 8.93107684 -0.12871171 13.3972168 -0.16479492 C14.91518438 -0.17984353 16.43310876 -0.20028738 17.95092773 -0.22631836 C20.13796677 -0.26287653 22.32442896 -0.27976523 24.51171875 -0.29296875 C25.82615967 -0.3086792 27.14060059 -0.32438965 28.49487305 -0.34057617 C32.17309761 0.01681905 34.04585553 0.84588456 37 3 C34.3333581 4.33332095 32.83319697 3.67102033 30 3 C30 2.34 30 1.68 30 1 C20.1 1 10.2 1 0 1 C0 0.67 0 0.34 0 0 Z " fill="#8D8D8D" transform="translate(215,336)"/>
<path d="M0 0 C-1.32 0.33 -2.64 0.66 -4 1 C-4 1.66 -4 2.32 -4 3 C-9.61 3 -15.22 3 -21 3 C-21 2.34 -21 1.68 -21 1 C-14.07 1.495 -14.07 1.495 -7 2 C-7 1.34 -7 0.68 -7 0 C-2.25 -1.125 -2.25 -1.125 0 0 Z " fill="#858585" transform="translate(405,344)"/>
<path d="M0 0 C0.33 0 0.66 0 1 0 C1 2.97 1 5.94 1 9 C1.66 9 2.32 9 3 9 C3.33 11.31 3.66 13.62 4 16 C3.34 15.67 2.68 15.34 2 15 C2 14.01 2 13.02 2 12 C1.34 12 0.68 12 0 12 C0 8.04 0 4.08 0 0 Z " fill="#888888" transform="translate(212,163)"/>
</svg>
