<?xml version="1.0" encoding="UTF-8"?>
<svg version="1.1" xmlns="http://www.w3.org/2000/svg" width="960" height="960">
<path d="M0 0 C0.87527344 0.350625 1.75054687 0.70125 2.65234375 1.0625 C15.93295305 6.95589827 26.23643302 20.08521282 36.35203552 30.19813538 C38.00666875 31.8487479 39.661511 33.49915093 41.31654316 35.14936346 C45.84699819 39.667916 50.37434763 44.18956882 54.90114558 48.71178472 C59.28749255 53.09324372 63.67661857 57.47191809 68.06535435 61.85098403 C80.36969714 74.12857028 92.66822047 86.41197986 104.96592554 98.69621411 C108.29889961 102.02551305 111.63203716 105.35464827 114.96521115 108.68374705 C135.68051527 129.37379243 156.39420667 150.06545095 177.10310268 170.76191044 C181.89398807 175.54987486 186.68489677 180.33781595 191.47583008 185.12573242 C192.07099479 185.72052622 192.66615949 186.31532002 193.27935949 186.92813787 C212.57682326 206.21344563 231.88366172 225.48933309 251.19588205 244.75986287 C271.07257259 264.59372279 290.94113004 284.43569172 310.79903146 304.2883645 C313.60619847 307.09479115 316.41345062 309.90113263 319.22075081 312.70742607 C319.77318749 313.25967214 320.32562418 313.81191821 320.89480137 314.38089901 C329.76538195 323.24797368 338.64431157 332.10664187 347.5263545 340.96223313 C356.46043184 349.87010513 365.38519398 358.7872263 374.3007031 367.71368302 C379.12597166 372.54438432 383.95540019 377.37073308 388.79578209 382.18629646 C393.23365447 386.60160408 397.65965402 391.02847277 402.07679714 395.46451538 C403.66989924 397.06040719 405.26717201 398.6521498 406.869188 400.23909331 C419.2995842 412.55973223 429.67469958 425.48893265 437.6875 441.125 C438.36256592 442.43621826 438.36256592 442.43621826 439.05126953 443.77392578 C453.42910164 472.45297633 456.7677922 500.43974618 456.6389643 532.02799273 C456.62542755 536.70957206 456.64108445 541.39107526 456.65278625 546.07264709 C456.6710429 555.20935934 456.6627332 564.34585594 456.64469803 573.48256119 C456.63060788 580.9104056 456.62679292 588.33819193 456.6301403 595.76604843 C456.63085647 597.35851505 456.63085647 597.35851505 456.6315871 598.98315271 C456.63261353 601.14048793 456.63366889 603.29782314 456.63475286 605.45515834 C456.64329458 624.47372918 456.62672274 643.49219653 456.59692383 662.51074219 C456.56805178 680.93819517 456.56102548 699.36549933 456.57641602 717.79296875 C456.59319225 737.90686187 456.59720103 758.02068457 456.57970566 778.13457954 C456.57786141 780.28042276 456.57602668 782.42626599 456.57420158 784.57210922 C456.57328949 785.6276777 456.5723774 786.68324618 456.57143768 787.77080158 C456.56584427 795.18990653 456.5691279 802.60897693 456.57574654 810.02807999 C456.58349213 819.06833028 456.57668169 828.10843435 456.5515715 837.14865525 C456.53910971 841.75595479 456.53288982 846.36302701 456.54411316 850.97033501 C456.55420799 855.1941651 456.54558539 859.41754334 456.52253198 863.64131878 C456.51740436 865.16237927 456.51887678 866.68348077 456.52792663 868.20452298 C456.62436308 885.89551915 451.63213211 900.75658384 439.3515625 913.71484375 C423.52763949 929.0919118 406.09984826 932.16307933 384.75340843 932.12863445 C383.30807662 932.12998247 381.86274516 932.13176714 380.41741437 932.13394669 C376.44624691 932.13866646 372.47510244 932.13717833 368.50393386 932.13466892 C364.18325926 932.13303396 359.86258953 932.13717825 355.54191649 932.14057809 C347.96933498 932.14573045 340.39675987 932.14714957 332.82417679 932.14612198 C321.56322037 932.1445976 310.30227102 932.1487576 299.04131598 932.1539966 C277.75884201 932.16367125 256.47637046 932.16648089 235.19389455 932.16705366 C218.75878558 932.16751309 202.32367755 932.16957081 185.88856888 932.17275429 C181.15886072 932.17365182 176.42915257 932.17454164 171.69944441 932.17542917 C170.52364436 932.17565021 169.34784431 932.17587126 168.13641395 932.17609901 C135.05967429 932.18225389 101.98293495 932.1861995 68.90619469 932.18575573 C67.65893305 932.18574015 66.41167141 932.18572457 65.12661396 932.18570852 C58.80488325 932.18562541 52.48315254 932.18552637 46.16142182 932.18542381 C44.27812373 932.1853939 44.27812373 932.1853939 42.35677922 932.18536337 C39.81778669 932.18532294 37.27879417 932.18528114 34.73980165 932.18523798 C-4.7624992 932.18462523 -44.26479146 932.19213146 -83.76708984 932.20581055 C-128.14169131 932.22117048 -172.51628714 932.22977682 -216.89089143 932.22884732 C-221.62248572 932.22877269 -226.35408 932.22872399 -231.08567429 932.22869301 C-232.83324802 932.22867553 -232.83324802 932.22867553 -234.61612628 932.22865769 C-253.36647688 932.22862692 -272.11682003 932.23501337 -290.86716842 932.24362527 C-309.71158293 932.25210138 -328.55598654 932.25309204 -347.40040191 932.24651595 C-358.59510239 932.24282 -369.78976976 932.24465402 -380.98446674 932.25445829 C-388.46536647 932.26045637 -395.94624221 932.25916472 -403.42714084 932.25198779 C-407.68744645 932.24810486 -411.94768795 932.2473348 -416.20798905 932.25544515 C-420.09117304 932.26277266 -423.97424009 932.2607308 -427.85741905 932.25152128 C-429.89641238 932.24901432 -431.93541079 932.25622354 -433.97439104 932.26394406 C-454.42603251 932.18566392 -472.2009548 928.23073264 -487.6875 913.9375 C-500.46785226 900.44712817 -504.6242446 884.09491678 -504.50793457 865.95518494 C-504.51255294 864.37016513 -504.5189121 862.78514961 -504.52684355 861.20014292 C-504.54343285 856.87840229 -504.53533814 852.55701818 -504.52289867 848.23527682 C-504.51380706 843.56089043 -504.52783856 838.88656316 -504.53881836 834.21218872 C-504.55656737 825.06644135 -504.55277889 815.9208256 -504.5411678 806.77507316 C-504.53211562 799.33513572 -504.5309172 791.89523503 -504.53526306 784.45529366 C-504.53587599 783.39431541 -504.53648893 782.33333715 -504.53712043 781.24020805 C-504.53839942 779.08441761 -504.53969627 776.92862717 -504.5410108 774.77283675 C-504.55240701 754.57429569 -504.53931995 734.37582733 -504.51780933 714.1772982 C-504.49995734 696.87963693 -504.50302867 679.58208313 -504.52148438 662.28442383 C-504.5429393 642.16651234 -504.55128946 622.04866461 -504.53903532 601.93074328 C-504.53776123 599.78096776 -504.53650374 597.63119224 -504.53526306 595.4814167 C-504.53464596 594.42388333 -504.53402886 593.36634996 -504.53339306 592.27677013 C-504.52995264 584.85705875 -504.53574053 577.4373881 -504.54518127 570.01768303 C-504.55645492 560.95873277 -504.55325003 551.89992097 -504.5320583 542.84098636 C-504.52161679 538.22680879 -504.51730647 533.61286119 -504.53065491 528.99868584 C-504.62483614 493.53347902 -504.62483614 493.53347902 -500 477 C-499.71952065 475.96912734 -499.43904129 474.93825468 -499.15006256 473.87614346 C-498.49985381 471.60287157 -497.75804586 469.40433244 -496.9375 467.1875 C-496.50522095 465.98963867 -496.50522095 465.98963867 -496.06420898 464.76757812 C-490.49601458 449.85015709 -483.73967612 434.68464195 -474 422 C-473.54214784 421.37997848 -473.08429568 420.75995697 -472.61256921 420.12114692 C-465.76564966 411.16681285 -457.69379636 403.40949617 -449.72988892 395.46246338 C-448.05914818 393.78798287 -446.3888394 392.11307127 -444.71892393 390.43776774 C-440.62193838 386.32985501 -436.52034609 382.22658406 -432.41673012 378.12529565 C-427.49781552 373.20866186 -422.58470487 368.28624335 -417.6716993 363.36370609 C-407.4878454 353.16054585 -397.29717364 342.96421354 -387.10423614 332.77012882 C-379.23360122 324.89857383 -371.36456911 317.02541996 -363.49665451 309.15114594 C-361.22965847 306.88235476 -358.96265467 304.61357133 -356.69564855 302.34479022 C-356.1320324 301.78073198 -355.56841625 301.21667373 -354.98772083 300.63552281 C-339.14299332 284.7784938 -323.29606588 268.92366608 -307.4447422 253.07323074 C-306.84756411 252.47608381 -306.25038602 251.87893687 -305.63511162 251.26369458 C-302.6085272 248.23727636 -299.58192684 245.21087409 -296.55532296 242.18447533 C-295.95425309 241.58344535 -295.35318321 240.98241537 -294.7338991 240.36317236 C-293.51839189 239.14774602 -292.30288332 237.93232104 -291.08737339 236.71689742 C-272.16730715 217.79805726 -253.25538535 198.87110847 -234.34960938 179.93798828 C-213.09871018 158.65636553 -191.84106543 137.38151187 -170.57386911 116.11617446 C-168.30621522 113.84866983 -166.03858726 111.58113928 -163.77097702 109.313591 C-162.93348245 108.4761314 -162.93348245 108.4761314 -162.0790688 107.62175342 C-153.09798802 98.64073415 -144.12333661 89.65331664 -135.1509065 80.66365596 C-126.13482609 71.63061942 -117.11127748 62.60509662 -108.08014275 53.58711085 C-103.18873289 48.70243913 -98.30054382 43.81464948 -93.42143059 38.91769218 C-88.95424336 34.43481237 -84.4779176 29.9612737 -79.99414973 25.49497959 C-78.37430883 23.87821684 -76.75783507 22.25807197 -75.14510567 20.63421538 C-57.50353008 2.87901249 -57.50353008 2.87901249 -45.1875 -1.3125 C-43.87845703 -1.77076172 -43.87845703 -1.77076172 -42.54296875 -2.23828125 C-29.11860865 -6.25940294 -12.82558949 -5.54620086 0 0 Z " fill="#18BCF2" transform="translate(504,28)"/>
<path d="M0 0 C3.50261559 2.84164652 6.78462444 5.8383035 10 9 C11.04994141 10.03060547 11.04994141 10.03060547 12.12109375 11.08203125 C26.20444413 25.87915767 33.55738809 46.26529701 33.35327148 66.5324707 C32.57011257 91.39987152 22.03455717 111.18653926 4.609375 128.35546875 C-6.81402439 139 -6.81402439 139 -13 139 C-12.67 245.92 -12.34 352.84 -12 463 C8.521875 442.82875 29.04375 422.6575 50.1875 401.875 C56.68848389 395.52878418 63.18946777 389.18256836 69.88745117 382.64404297 C75.67578975 376.91256096 75.67578975 376.91256096 81.45283508 371.16970825 C84.02614766 368.61223227 86.62188375 366.08017162 89.23323059 363.56155396 C92.56591856 360.34566616 95.85540813 357.09091597 99.11812079 353.8041079 C100.32083213 352.60643255 101.53791394 351.42297311 102.77054441 350.25611281 C106.45407642 346.76019375 109.62715055 343.52220947 112 339 C112.02416176 333.89490966 110.64875208 329.77947958 109 325 C108.60357258 321.48299578 108.56557407 318.036358 108.625 314.5 C108.63442627 313.60418213 108.64385254 312.70836426 108.65356445 311.78540039 C109.16646119 289.02790642 119.15436665 269.86873194 135 254 C135.65742187 253.33097656 136.31484375 252.66195313 136.9921875 251.97265625 C145.16479841 244.23849014 156.33892698 238.42146064 167 235 C167.92425781 234.70222656 168.84851563 234.40445313 169.80078125 234.09765625 C190.59600934 228.36377506 213.12879212 232.25329842 231.828125 242.55859375 C238.57894883 246.64114503 244.38306222 251.47683413 250 257 C250.69996094 257.68707031 251.39992188 258.37414062 252.12109375 259.08203125 C266.79109665 274.49554307 273.54950375 295.12594539 273.28076172 316.10229492 C272.69030074 337.78970809 264.09236654 356.47487743 249 372 C248.42507813 372.63679688 247.85015625 373.27359375 247.2578125 373.9296875 C234.65544176 387.49683303 214.74298235 395.38735984 196.46484375 396.3828125 C194.49773783 396.43639884 192.53018352 396.47553038 190.5625 396.5 C189.67062988 396.51853027 188.77875977 396.53706055 187.85986328 396.55615234 C182.48222369 396.50711612 178.37498026 395.76934639 173.32783985 393.83831686 C168.78314972 392.28044133 164.45568462 391.07379904 159.81755638 392.82314372 C153.93588155 396.21371407 149.06952346 400.94810824 144.11328125 405.53491211 C142.40139328 407.04946513 140.68614613 408.56022842 138.96783447 410.06748962 C133.33534163 415.05147452 127.8168852 420.15267519 122.3125 425.27734375 C121.36439831 426.15749877 120.41629662 427.03765379 119.43946457 427.94448018 C110.42966316 436.3166631 101.46195038 444.73159487 92.5952301 453.25530148 C90.54131314 455.22837608 88.48683797 457.2008665 86.43164062 459.17260742 C85.66590392 459.90736768 85.66590392 459.90736768 84.88469779 460.65697158 C76.74964013 468.44930791 68.40165461 475.95861558 59.92270815 483.37349945 C51.10789267 491.09124278 42.57112271 499.05278154 34.21442699 507.26452261 C29.55082224 511.83542087 24.84066102 516.26316178 19.81021118 520.43739128 C2.86941479 534.85389678 -0.50629247 544.03432275 -12 566 C-12.33 607.25 -12.66 648.5 -13 691 C-163.81 691 -314.62 691 -470 691 C-470 690.67 -470 690.34 -470 690 C-348.23 690 -226.46 690 -101 690 C-105.44335791 684.92187668 -109.8492754 679.99575211 -114.58969116 675.22276306 C-115.21410555 674.59043859 -115.83851995 673.95811411 -116.48185599 673.30662829 C-118.55118949 671.21245848 -120.62391233 669.12167971 -122.69677734 667.03100586 C-124.19071076 665.52096547 -125.68450695 664.01078931 -127.17817688 662.50048828 C-140.7447919 648.7899739 -154.34572363 635.11334349 -167.95477867 621.44496822 C-178.00875189 611.34631029 -188.04602066 601.23162237 -198.06244504 591.09571737 C-205.11621486 583.96065456 -212.18891845 576.84471126 -219.27585375 569.74259096 C-223.50585498 565.50241437 -227.72682662 561.25406241 -231.92741013 556.98472404 C-235.87364472 552.97459854 -239.84270651 548.9885888 -243.83066368 545.01996613 C-245.2902251 543.55924903 -246.74123006 542.08992468 -248.18292046 540.61156654 C-250.15174191 538.59527833 -252.14895998 536.61217706 -254.15634155 534.63438416 C-254.72066623 534.04161318 -255.28499091 533.44884221 -255.86641634 532.83810848 C-258.3111833 530.48515941 -259.86445964 529.0671828 -263.33146882 528.86206162 C-265.61280723 529.10003398 -267.76860058 529.47613673 -270 530 C-270.89372314 530.17225098 -271.78744629 530.34450195 -272.70825195 530.52197266 C-273.80592896 530.77793213 -273.80592896 530.77793213 -274.92578125 531.0390625 C-295.57139255 535.31881285 -314.01081757 530.04227872 -332 520 C-333.26263672 519.30970703 -333.26263672 519.30970703 -334.55078125 518.60546875 C-352.94858116 507.4726136 -363.40489049 488.49417296 -369.421875 468.44921875 C-374.66742415 446.22652066 -369.57471 424.15049152 -357.94140625 404.87890625 C-354.73957266 400.13091559 -351.03920091 396.04586626 -347 392 C-345.85917969 390.84177734 -345.85917969 390.84177734 -344.6953125 389.66015625 C-328.83024668 374.44529805 -307.99588409 367.41845027 -286.25073242 367.44018555 C-263.30649068 368.14157384 -243.29240371 378.96000911 -227.48828125 395.1328125 C-211.66594023 413.36452099 -205.4264128 435.19706518 -207 459 C-207.52121502 462.77199563 -208.38477177 466.43222485 -209.34375 470.1171875 C-210.18496977 473.31978507 -210.18496977 473.31978507 -210 478 C-169.08 518.92 -128.16 559.84 -86 602 C-85.67 449.21 -85.34 296.42 -85 139 C-86.98 138.34 -88.96 137.68 -91 137 C-108.68060707 126.52061283 -119.80436772 110.96523238 -127 92 C-127.350625 91.16726563 -127.70125 90.33453125 -128.0625 89.4765625 C-134.69094309 71.96642533 -131.89048812 49.57301196 -124.4296875 32.9296875 C-119.29483324 22.40744517 -113.2121303 14.22410133 -105 6 C-104.01386719 4.99646484 -104.01386719 4.99646484 -103.0078125 3.97265625 C-94.83520159 -3.76150986 -83.66107302 -9.57853936 -73 -13 C-71.61361328 -13.44666016 -71.61361328 -13.44666016 -70.19921875 -13.90234375 C-46.23656214 -20.50958198 -19.85697012 -14.52095613 0 0 Z " fill="#F1F3F8" transform="translate(529,269)"/>
</svg>
