<?xml version="1.0" encoding="UTF-8"?>
<!DOCTYPE svg PUBLIC "-//W3C//DTD SVG 1.1//EN" "http://www.w3.org/Graphics/SVG/1.1/DTD/svg11.dtd">
<svg xmlns="http://www.w3.org/2000/svg" version="1.1" width="128px" height="128px" style="shape-rendering:geometricPrecision; text-rendering:geometricPrecision; image-rendering:optimizeQuality; fill-rule:evenodd; clip-rule:evenodd" xmlns:xlink="http://www.w3.org/1999/xlink">
<g><path style="opacity:0.96" fill="#fefffe" d="M 3.5,-0.5 C 43.1667,-0.5 82.8333,-0.5 122.5,-0.5C 124.142,0.802988 125.809,2.13632 127.5,3.5C 127.5,43.5 127.5,83.5 127.5,123.5C 125.809,124.864 124.142,126.197 122.5,127.5C 82.8333,127.5 43.1667,127.5 3.5,127.5C 2.5,125.833 1.16667,124.5 -0.5,123.5C -0.5,83.5 -0.5,43.5 -0.5,3.5C 1.16667,2.5 2.5,1.16667 3.5,-0.5 Z M 18.5,16.5 C 30.4139,16.1785 42.2473,16.5118 54,17.5C 54.5,48.1649 54.6666,78.8315 54.5,109.5C 42.1667,109.5 29.8333,109.5 17.5,109.5C 17.1747,78.4265 17.5081,47.4265 18.5,16.5 Z M 72.5,38.5 C 85.3561,37.2826 96.1894,41.2826 105,50.5C 107.702,54.409 109.035,58.7423 109,63.5C 109.824,78.7412 109.657,93.9078 108.5,109C 106.402,108.968 104.402,108.301 102.5,107C 98.3017,103.97 93.9684,101.137 89.5,98.5C 84.1667,102.167 78.8333,105.833 73.5,109.5C 72.5003,85.8427 72.1669,62.1761 72.5,38.5 Z"/></g>
</svg>
